<?xml version="1.0" encoding="utf-8" standalone="no"?>
<!DOCTYPE svg PUBLIC "-//W3C//DTD SVG 1.1//EN"
  "http://www.w3.org/Graphics/SVG/1.1/DTD/svg11.dtd">
<svg xmlns:xlink="http://www.w3.org/1999/xlink" width="547.2pt" height="388.8pt" viewBox="0 0 547.2 388.8" xmlns="http://www.w3.org/2000/svg" version="1.1">
 <metadata>
  <rdf:RDF xmlns:dc="http://purl.org/dc/elements/1.1/" xmlns:cc="http://creativecommons.org/ns#" xmlns:rdf="http://www.w3.org/1999/02/22-rdf-syntax-ns#">
   <cc:Work>
    <dc:type rdf:resource="http://purl.org/dc/dcmitype/StillImage"/>
    <dc:format>image/svg+xml</dc:format>
    <dc:creator>
     <cc:Agent>
      <dc:title>Matplotlib v3.11.1, https://matplotlib.org/</dc:title>
     </cc:Agent>
    </dc:creator>
   </cc:Work>
  </rdf:RDF>
 </metadata>
 <defs>
  <style type="text/css">*{stroke-linejoin: round; stroke-linecap: butt}</style>
 </defs>
 <g id="figure_1">
  <g id="patch_1">
   <path d="M 0 388.8 
L 547.2 388.8 
L 547.2 0 
L 0 0 
z
" style="fill: #ffffff"/>
  </g>
  <g id="axes_1">
   <g id="patch_2">
    <path d="M 55.882344 183.502828 
L 267.48 183.502828 
L 267.48 48.048 
L 55.882344 48.048 
z
" style="fill: #ffffff"/>
   </g>
   <g id="patch_3">
    <path d="M 65.500419 183.502828 
L 78.999472 183.502828 
L 78.999472 105.960186 
L 65.500419 105.960186 
z
" clip-path="url(#p67b5bcceab)" style="fill: #1b6ca8; stroke: #222222; stroke-width: 0.5; stroke-linejoin: miter"/>
   </g>
   <g id="patch_4">
    <path d="M 116.121868 183.502828 
L 129.620921 183.502828 
L 129.620921 129.790306 
L 116.121868 129.790306 
z
" clip-path="url(#p67b5bcceab)" style="fill: #1b6ca8; stroke: #222222; stroke-width: 0.5; stroke-linejoin: miter"/>
   </g>
   <g id="patch_5">
    <path d="M 166.743317 183.502828 
L 180.24237 183.502828 
L 180.24237 132.099887 
L 166.743317 132.099887 
z
" clip-path="url(#p67b5bcceab)" style="fill: #1b6ca8; stroke: #222222; stroke-width: 0.5; stroke-linejoin: miter"/>
   </g>
   <g id="patch_6">
    <path d="M 217.364766 183.502828 
L 230.863819 183.502828 
L 230.863819 76.077696 
L 217.364766 76.077696 
z
" clip-path="url(#p67b5bcceab)" style="fill: #1b6ca8; stroke: #222222; stroke-width: 0.5; stroke-linejoin: miter"/>
   </g>
   <g id="patch_7">
    <path d="M 78.999472 183.502828 
L 92.498525 183.502828 
L 92.498525 123.435447 
L 78.999472 123.435447 
z
" clip-path="url(#p67b5bcceab)" style="fill: #c0392b; stroke: #222222; stroke-width: 0.5; stroke-linejoin: miter"/>
   </g>
   <g id="patch_8">
    <path d="M 129.620921 183.502828 
L 143.119974 183.502828 
L 143.119974 140.094833 
L 129.620921 140.094833 
z
" clip-path="url(#p67b5bcceab)" style="fill: #c0392b; stroke: #222222; stroke-width: 0.5; stroke-linejoin: miter"/>
   </g>
   <g id="patch_9">
    <path d="M 180.24237 183.502828 
L 193.741423 183.502828 
L 193.741423 153.333356 
L 180.24237 153.333356 
z
" clip-path="url(#p67b5bcceab)" style="fill: #c0392b; stroke: #222222; stroke-width: 0.5; stroke-linejoin: miter"/>
   </g>
   <g id="patch_10">
    <path d="M 230.863819 183.502828 
L 244.362872 183.502828 
L 244.362872 103.486946 
L 230.863819 103.486946 
z
" clip-path="url(#p67b5bcceab)" style="fill: #c0392b; stroke: #222222; stroke-width: 0.5; stroke-linejoin: miter"/>
   </g>
   <g id="patch_11">
    <path d="M 92.498525 183.502828 
L 105.997578 183.502828 
L 105.997578 66.735318 
L 92.498525 66.735318 
z
" clip-path="url(#p67b5bcceab)" style="fill: #2e8b57; stroke: #222222; stroke-width: 0.5; stroke-linejoin: miter"/>
   </g>
   <g id="patch_12">
    <path d="M 143.119974 183.502828 
L 156.619027 183.502828 
L 156.619027 139.233844 
L 143.119974 139.233844 
z
" clip-path="url(#p67b5bcceab)" style="fill: #2e8b57; stroke: #222222; stroke-width: 0.5; stroke-linejoin: miter"/>
   </g>
   <g id="patch_13">
    <path d="M 193.741423 183.502828 
L 207.240476 183.502828 
L 207.240476 151.133221 
L 193.741423 151.133221 
z
" clip-path="url(#p67b5bcceab)" style="fill: #2e8b57; stroke: #222222; stroke-width: 0.5; stroke-linejoin: miter"/>
   </g>
   <g id="patch_14">
    <path d="M 244.362872 183.502828 
L 257.861925 183.502828 
L 257.861925 54.49823 
L 244.362872 54.49823 
z
" clip-path="url(#p67b5bcceab)" style="fill: #2e8b57; stroke: #222222; stroke-width: 0.5; stroke-linejoin: miter"/>
   </g>
   <g id="matplotlib.axis_1">
    <g id="xtick_1">
     <g id="line2d_1">
      <defs>
       <path id="mfbf6cdb04b" d="M 0 0 
L 0 3.5 
" style="stroke: #000000; stroke-width: 0.8"/>
      </defs>
      <g>
       <use xlink:href="#mfbf6cdb04b" x="85.748999" y="183.502828" style="stroke: #000000; stroke-width: 0.8"/>
      </g>
     </g>
     <g id="text_1">
      <!-- X -->
      <g transform="translate(82.323999 198.100484) scale(0.1 -0.1)">
       <defs>
        <path id="DejaVuSans-3b" d="M 403 4666 
L 1081 4666 
L 2241 2931 
L 3406 4666 
L 4084 4666 
L 2584 2425 
L 4184 0 
L 3506 0 
L 2194 1984 
L 872 0 
L 191 0 
L 1856 2491 
L 403 4666 
z
" transform="scale(0.015625)"/>
       </defs>
       <use xlink:href="#DejaVuSans-3b"/>
      </g>
     </g>
    </g>
    <g id="xtick_2">
     <g id="line2d_2">
      <g>
       <use xlink:href="#mfbf6cdb04b" x="136.370447" y="183.502828" style="stroke: #000000; stroke-width: 0.8"/>
      </g>
     </g>
     <g id="text_2">
      <!-- Y -->
      <g transform="translate(133.316541 198.100484) scale(0.1 -0.1)">
       <defs>
        <path id="DejaVuSans-3c" d="M -13 4666 
L 666 4666 
L 1959 2747 
L 3244 4666 
L 3922 4666 
L 2272 2222 
L 2272 0 
L 1638 0 
L 1638 2222 
L -13 4666 
z
" transform="scale(0.015625)"/>
       </defs>
       <use xlink:href="#DejaVuSans-3c"/>
      </g>
     </g>
    </g>
    <g id="xtick_3">
     <g id="line2d_3">
      <g>
       <use xlink:href="#mfbf6cdb04b" x="186.991896" y="183.502828" style="stroke: #000000; stroke-width: 0.8"/>
      </g>
     </g>
     <g id="text_3">
      <!-- Z -->
      <g transform="translate(183.566896 198.100484) scale(0.1 -0.1)">
       <defs>
        <path id="DejaVuSans-3d" d="M 359 4666 
L 4025 4666 
L 4025 4184 
L 1075 531 
L 4097 531 
L 4097 0 
L 288 0 
L 288 481 
L 3238 4134 
L 359 4134 
L 359 4666 
z
" transform="scale(0.015625)"/>
       </defs>
       <use xlink:href="#DejaVuSans-3d"/>
      </g>
     </g>
    </g>
    <g id="xtick_4">
     <g id="line2d_4">
      <g>
       <use xlink:href="#mfbf6cdb04b" x="237.613345" y="183.502828" style="stroke: #000000; stroke-width: 0.8"/>
      </g>
     </g>
     <g id="text_4">
      <!-- 3-D -->
      <g transform="translate(228.778189 198.100484) scale(0.1 -0.1)">
       <defs>
        <path id="DejaVuSans-16" d="M 2597 2516 
Q 3050 2419 3304 2112 
Q 3559 1806 3559 1356 
Q 3559 666 3084 287 
Q 2609 -91 1734 -91 
Q 1441 -91 1130 -33 
Q 819 25 488 141 
L 488 750 
Q 750 597 1062 519 
Q 1375 441 1716 441 
Q 2309 441 2620 675 
Q 2931 909 2931 1356 
Q 2931 1769 2642 2001 
Q 2353 2234 1838 2234 
L 1294 2234 
L 1294 2753 
L 1863 2753 
Q 2328 2753 2575 2939 
Q 2822 3125 2822 3475 
Q 2822 3834 2567 4026 
Q 2313 4219 1838 4219 
Q 1578 4219 1281 4162 
Q 984 4106 628 3988 
L 628 4550 
Q 988 4650 1302 4700 
Q 1616 4750 1894 4750 
Q 2613 4750 3031 4423 
Q 3450 4097 3450 3541 
Q 3450 3153 3228 2886 
Q 3006 2619 2597 2516 
z
" transform="scale(0.015625)"/>
        <path id="DejaVuSans-10" d="M 313 2009 
L 1997 2009 
L 1997 1497 
L 313 1497 
L 313 2009 
z
" transform="scale(0.015625)"/>
        <path id="DejaVuSans-27" d="M 1259 4147 
L 1259 519 
L 2022 519 
Q 2988 519 3436 956 
Q 3884 1394 3884 2338 
Q 3884 3275 3436 3711 
Q 2988 4147 2022 4147 
L 1259 4147 
z
M 628 4666 
L 1925 4666 
Q 3281 4666 3915 4102 
Q 4550 3538 4550 2338 
Q 4550 1131 3912 565 
Q 3275 0 1925 0 
L 628 0 
L 628 4666 
z
" transform="scale(0.015625)"/>
       </defs>
       <use xlink:href="#DejaVuSans-16"/>
       <use xlink:href="#DejaVuSans-10" transform="translate(63.625 0)"/>
       <use xlink:href="#DejaVuSans-27" transform="translate(99.703125 0)"/>
      </g>
     </g>
    </g>
   </g>
   <g id="matplotlib.axis_2">
    <g id="ytick_1">
     <g id="line2d_5">
      <path d="M 55.882344 183.502828 
L 267.48 183.502828 
" clip-path="url(#p67b5bcceab)" style="fill: none; stroke: #b0b0b0; stroke-opacity: 0.25; stroke-width: 0.8; stroke-linecap: square"/>
     </g>
     <g id="line2d_6">
      <defs>
       <path id="m28bd4492ca" d="M 0 0 
L -3.5 0 
" style="stroke: #000000; stroke-width: 0.8"/>
      </defs>
      <g>
       <use xlink:href="#m28bd4492ca" x="55.882344" y="183.502828" style="stroke: #000000; stroke-width: 0.8"/>
      </g>
     </g>
     <g id="text_5">
      <!-- 0.0 -->
      <g transform="translate(32.979219 187.301656) scale(0.1 -0.1)">
       <defs>
        <path id="DejaVuSans-13" d="M 2034 4250 
Q 1547 4250 1301 3770 
Q 1056 3291 1056 2328 
Q 1056 1369 1301 889 
Q 1547 409 2034 409 
Q 2525 409 2770 889 
Q 3016 1369 3016 2328 
Q 3016 3291 2770 3770 
Q 2525 4250 2034 4250 
z
M 2034 4750 
Q 2819 4750 3233 4129 
Q 3647 3509 3647 2328 
Q 3647 1150 3233 529 
Q 2819 -91 2034 -91 
Q 1250 -91 836 529 
Q 422 1150 422 2328 
Q 422 3509 836 4129 
Q 1250 4750 2034 4750 
z
" transform="scale(0.015625)"/>
        <path id="DejaVuSans-11" d="M 684 794 
L 1344 794 
L 1344 0 
L 684 0 
L 684 794 
z
" transform="scale(0.015625)"/>
       </defs>
       <use xlink:href="#DejaVuSans-13"/>
       <use xlink:href="#DejaVuSans-11" transform="translate(63.625 0)"/>
       <use xlink:href="#DejaVuSans-13" transform="translate(95.40625 0)"/>
      </g>
     </g>
    </g>
    <g id="ytick_2">
     <g id="line2d_7">
      <path d="M 55.882344 140.157629 
L 267.48 140.157629 
" clip-path="url(#p67b5bcceab)" style="fill: none; stroke: #b0b0b0; stroke-opacity: 0.25; stroke-width: 0.8; stroke-linecap: square"/>
     </g>
     <g id="line2d_8">
      <g>
       <use xlink:href="#m28bd4492ca" x="55.882344" y="140.157629" style="stroke: #000000; stroke-width: 0.8"/>
      </g>
     </g>
     <g id="text_6">
      <!-- 0.2 -->
      <g transform="translate(32.979219 143.956458) scale(0.1 -0.1)">
       <defs>
        <path id="DejaVuSans-15" d="M 1228 531 
L 3431 531 
L 3431 0 
L 469 0 
L 469 531 
Q 828 903 1448 1529 
Q 2069 2156 2228 2338 
Q 2531 2678 2651 2914 
Q 2772 3150 2772 3378 
Q 2772 3750 2511 3984 
Q 2250 4219 1831 4219 
Q 1534 4219 1204 4116 
Q 875 4013 500 3803 
L 500 4441 
Q 881 4594 1212 4672 
Q 1544 4750 1819 4750 
Q 2544 4750 2975 4387 
Q 3406 4025 3406 3419 
Q 3406 3131 3298 2873 
Q 3191 2616 2906 2266 
Q 2828 2175 2409 1742 
Q 1991 1309 1228 531 
z
" transform="scale(0.015625)"/>
       </defs>
       <use xlink:href="#DejaVuSans-13"/>
       <use xlink:href="#DejaVuSans-11" transform="translate(63.625 0)"/>
       <use xlink:href="#DejaVuSans-15" transform="translate(95.40625 0)"/>
      </g>
     </g>
    </g>
    <g id="ytick_3">
     <g id="line2d_9">
      <path d="M 55.882344 96.812431 
L 267.48 96.812431 
" clip-path="url(#p67b5bcceab)" style="fill: none; stroke: #b0b0b0; stroke-opacity: 0.25; stroke-width: 0.8; stroke-linecap: square"/>
     </g>
     <g id="line2d_10">
      <g>
       <use xlink:href="#m28bd4492ca" x="55.882344" y="96.812431" style="stroke: #000000; stroke-width: 0.8"/>
      </g>
     </g>
     <g id="text_7">
      <!-- 0.4 -->
      <g transform="translate(32.979219 100.611259) scale(0.1 -0.1)">
       <defs>
        <path id="DejaVuSans-17" d="M 2419 4116 
L 825 1625 
L 2419 1625 
L 2419 4116 
z
M 2253 4666 
L 3047 4666 
L 3047 1625 
L 3713 1625 
L 3713 1100 
L 3047 1100 
L 3047 0 
L 2419 0 
L 2419 1100 
L 313 1100 
L 313 1709 
L 2253 4666 
z
" transform="scale(0.015625)"/>
       </defs>
       <use xlink:href="#DejaVuSans-13"/>
       <use xlink:href="#DejaVuSans-11" transform="translate(63.625 0)"/>
       <use xlink:href="#DejaVuSans-17" transform="translate(95.40625 0)"/>
      </g>
     </g>
    </g>
    <g id="ytick_4">
     <g id="line2d_11">
      <path d="M 55.882344 53.467232 
L 267.48 53.467232 
" clip-path="url(#p67b5bcceab)" style="fill: none; stroke: #b0b0b0; stroke-opacity: 0.25; stroke-width: 0.8; stroke-linecap: square"/>
     </g>
     <g id="line2d_12">
      <g>
       <use xlink:href="#m28bd4492ca" x="55.882344" y="53.467232" style="stroke: #000000; stroke-width: 0.8"/>
      </g>
     </g>
     <g id="text_8">
      <!-- 0.6 -->
      <g transform="translate(32.979219 57.26606) scale(0.1 -0.1)">
       <defs>
        <path id="DejaVuSans-19" d="M 2113 2584 
Q 1688 2584 1439 2293 
Q 1191 2003 1191 1497 
Q 1191 994 1439 701 
Q 1688 409 2113 409 
Q 2538 409 2786 701 
Q 3034 994 3034 1497 
Q 3034 2003 2786 2293 
Q 2538 2584 2113 2584 
z
M 3366 4563 
L 3366 3988 
Q 3128 4100 2886 4159 
Q 2644 4219 2406 4219 
Q 1781 4219 1451 3797 
Q 1122 3375 1075 2522 
Q 1259 2794 1537 2939 
Q 1816 3084 2150 3084 
Q 2853 3084 3261 2657 
Q 3669 2231 3669 1497 
Q 3669 778 3244 343 
Q 2819 -91 2113 -91 
Q 1303 -91 875 529 
Q 447 1150 447 2328 
Q 447 3434 972 4092 
Q 1497 4750 2381 4750 
Q 2619 4750 2861 4703 
Q 3103 4656 3366 4563 
z
" transform="scale(0.015625)"/>
       </defs>
       <use xlink:href="#DejaVuSans-13"/>
       <use xlink:href="#DejaVuSans-11" transform="translate(63.625 0)"/>
       <use xlink:href="#DejaVuSans-19" transform="translate(95.40625 0)"/>
      </g>
     </g>
    </g>
    <g id="text_9">
     <!-- RMS error (m) -->
     <g transform="translate(26.576875 150.792602) rotate(-90) scale(0.1 -0.1)">
      <defs>
       <path id="DejaVuSans-35" d="M 2841 2188 
Q 3044 2119 3236 1894 
Q 3428 1669 3622 1275 
L 4263 0 
L 3584 0 
L 2988 1197 
Q 2756 1666 2539 1819 
Q 2322 1972 1947 1972 
L 1259 1972 
L 1259 0 
L 628 0 
L 628 4666 
L 2053 4666 
Q 2853 4666 3247 4331 
Q 3641 3997 3641 3322 
Q 3641 2881 3436 2590 
Q 3231 2300 2841 2188 
z
M 1259 4147 
L 1259 2491 
L 2053 2491 
Q 2509 2491 2742 2702 
Q 2975 2913 2975 3322 
Q 2975 3731 2742 3939 
Q 2509 4147 2053 4147 
L 1259 4147 
z
" transform="scale(0.015625)"/>
       <path id="DejaVuSans-30" d="M 628 4666 
L 1569 4666 
L 2759 1491 
L 3956 4666 
L 4897 4666 
L 4897 0 
L 4281 0 
L 4281 4097 
L 3078 897 
L 2444 897 
L 1241 4097 
L 1241 0 
L 628 0 
L 628 4666 
z
" transform="scale(0.015625)"/>
       <path id="DejaVuSans-36" d="M 3425 4513 
L 3425 3897 
Q 3066 4069 2747 4153 
Q 2428 4238 2131 4238 
Q 1616 4238 1336 4038 
Q 1056 3838 1056 3469 
Q 1056 3159 1242 3001 
Q 1428 2844 1947 2747 
L 2328 2669 
Q 3034 2534 3370 2195 
Q 3706 1856 3706 1288 
Q 3706 609 3251 259 
Q 2797 -91 1919 -91 
Q 1588 -91 1214 -16 
Q 841 59 441 206 
L 441 856 
Q 825 641 1194 531 
Q 1563 422 1919 422 
Q 2459 422 2753 634 
Q 3047 847 3047 1241 
Q 3047 1584 2836 1778 
Q 2625 1972 2144 2069 
L 1759 2144 
Q 1053 2284 737 2584 
Q 422 2884 422 3419 
Q 422 4038 858 4394 
Q 1294 4750 2059 4750 
Q 2388 4750 2728 4690 
Q 3069 4631 3425 4513 
z
" transform="scale(0.015625)"/>
       <path id="DejaVuSans-3" transform="scale(0.015625)"/>
       <path id="DejaVuSans-48" d="M 3597 1894 
L 3597 1613 
L 953 1613 
Q 991 1019 1311 708 
Q 1631 397 2203 397 
Q 2534 397 2845 478 
Q 3156 559 3463 722 
L 3463 178 
Q 3153 47 2828 -22 
Q 2503 -91 2169 -91 
Q 1331 -91 842 396 
Q 353 884 353 1716 
Q 353 2575 817 3079 
Q 1281 3584 2069 3584 
Q 2775 3584 3186 3129 
Q 3597 2675 3597 1894 
z
M 3022 2063 
Q 3016 2534 2758 2815 
Q 2500 3097 2075 3097 
Q 1594 3097 1305 2825 
Q 1016 2553 972 2059 
L 3022 2063 
z
" transform="scale(0.015625)"/>
       <path id="DejaVuSans-55" d="M 2631 2963 
Q 2534 3019 2420 3045 
Q 2306 3072 2169 3072 
Q 1681 3072 1420 2755 
Q 1159 2438 1159 1844 
L 1159 0 
L 581 0 
L 581 3500 
L 1159 3500 
L 1159 2956 
Q 1341 3275 1631 3429 
Q 1922 3584 2338 3584 
Q 2397 3584 2469 3576 
Q 2541 3569 2628 3553 
L 2631 2963 
z
" transform="scale(0.015625)"/>
       <path id="DejaVuSans-52" d="M 1959 3097 
Q 1497 3097 1228 2736 
Q 959 2375 959 1747 
Q 959 1119 1226 758 
Q 1494 397 1959 397 
Q 2419 397 2687 759 
Q 2956 1122 2956 1747 
Q 2956 2369 2687 2733 
Q 2419 3097 1959 3097 
z
M 1959 3584 
Q 2709 3584 3137 3096 
Q 3566 2609 3566 1747 
Q 3566 888 3137 398 
Q 2709 -91 1959 -91 
Q 1206 -91 779 398 
Q 353 888 353 1747 
Q 353 2609 779 3096 
Q 1206 3584 1959 3584 
z
" transform="scale(0.015625)"/>
       <path id="DejaVuSans-b" d="M 1984 4856 
Q 1566 4138 1362 3434 
Q 1159 2731 1159 2009 
Q 1159 1288 1364 580 
Q 1569 -128 1984 -844 
L 1484 -844 
Q 1016 -109 783 600 
Q 550 1309 550 2009 
Q 550 2706 781 3412 
Q 1013 4119 1484 4856 
L 1984 4856 
z
" transform="scale(0.015625)"/>
       <path id="DejaVuSans-50" d="M 3328 2828 
Q 3544 3216 3844 3400 
Q 4144 3584 4550 3584 
Q 5097 3584 5394 3201 
Q 5691 2819 5691 2113 
L 5691 0 
L 5113 0 
L 5113 2094 
Q 5113 2597 4934 2840 
Q 4756 3084 4391 3084 
Q 3944 3084 3684 2787 
Q 3425 2491 3425 1978 
L 3425 0 
L 2847 0 
L 2847 2094 
Q 2847 2600 2669 2842 
Q 2491 3084 2119 3084 
Q 1678 3084 1418 2786 
Q 1159 2488 1159 1978 
L 1159 0 
L 581 0 
L 581 3500 
L 1159 3500 
L 1159 2956 
Q 1356 3278 1631 3431 
Q 1906 3584 2284 3584 
Q 2666 3584 2933 3390 
Q 3200 3197 3328 2828 
z
" transform="scale(0.015625)"/>
       <path id="DejaVuSans-c" d="M 513 4856 
L 1013 4856 
Q 1481 4119 1714 3412 
Q 1947 2706 1947 2009 
Q 1947 1309 1714 600 
Q 1481 -109 1013 -844 
L 513 -844 
Q 928 -128 1133 580 
Q 1338 1288 1338 2009 
Q 1338 2731 1133 3434 
Q 928 4138 513 4856 
z
" transform="scale(0.015625)"/>
      </defs>
      <use xlink:href="#DejaVuSans-35"/>
      <use xlink:href="#DejaVuSans-30" transform="translate(69.484375 0)"/>
      <use xlink:href="#DejaVuSans-36" transform="translate(155.765625 0)"/>
      <use xlink:href="#DejaVuSans-3" transform="translate(219.25 0)"/>
      <use xlink:href="#DejaVuSans-48" transform="translate(251.03125 0)"/>
      <use xlink:href="#DejaVuSans-55" transform="translate(312.5625 0)"/>
      <use xlink:href="#DejaVuSans-55" transform="translate(351.921875 0)"/>
      <use xlink:href="#DejaVuSans-52" transform="translate(390.828125 0)"/>
      <use xlink:href="#DejaVuSans-55" transform="translate(452.015625 0)"/>
      <use xlink:href="#DejaVuSans-3" transform="translate(493.125 0)"/>
      <use xlink:href="#DejaVuSans-b" transform="translate(524.90625 0)"/>
      <use xlink:href="#DejaVuSans-50" transform="translate(563.921875 0)"/>
      <use xlink:href="#DejaVuSans-c" transform="translate(661.328125 0)"/>
     </g>
    </g>
   </g>
   <g id="patch_15">
    <path d="M 55.882344 183.502828 
L 55.882344 48.048 
" style="fill: none; stroke: #000000; stroke-width: 0.8; stroke-linejoin: miter; stroke-linecap: square"/>
   </g>
   <g id="patch_16">
    <path d="M 267.48 183.502828 
L 267.48 48.048 
" style="fill: none; stroke: #000000; stroke-width: 0.8; stroke-linejoin: miter; stroke-linecap: square"/>
   </g>
   <g id="patch_17">
    <path d="M 55.882344 183.502828 
L 267.48 183.502828 
" style="fill: none; stroke: #000000; stroke-width: 0.8; stroke-linejoin: miter; stroke-linecap: square"/>
   </g>
   <g id="patch_18">
    <path d="M 55.882344 48.048 
L 267.48 48.048 
" style="fill: none; stroke: #000000; stroke-width: 0.8; stroke-linejoin: miter; stroke-linecap: square"/>
   </g>
   <g id="text_10">
    <!-- Displacement floor -->
    <g transform="translate(114.396016 42.048) scale(0.1 -0.1)">
     <defs>
      <path id="DejaVuSans-4c" d="M 603 3500 
L 1178 3500 
L 1178 0 
L 603 0 
L 603 3500 
z
M 603 4863 
L 1178 4863 
L 1178 4134 
L 603 4134 
L 603 4863 
z
" transform="scale(0.015625)"/>
      <path id="DejaVuSans-56" d="M 2834 3397 
L 2834 2853 
Q 2591 2978 2328 3040 
Q 2066 3103 1784 3103 
Q 1356 3103 1142 2972 
Q 928 2841 928 2578 
Q 928 2378 1081 2264 
Q 1234 2150 1697 2047 
L 1894 2003 
Q 2506 1872 2764 1633 
Q 3022 1394 3022 966 
Q 3022 478 2636 193 
Q 2250 -91 1575 -91 
Q 1294 -91 989 -36 
Q 684 19 347 128 
L 347 722 
Q 666 556 975 473 
Q 1284 391 1588 391 
Q 1994 391 2212 530 
Q 2431 669 2431 922 
Q 2431 1156 2273 1281 
Q 2116 1406 1581 1522 
L 1381 1569 
Q 847 1681 609 1914 
Q 372 2147 372 2553 
Q 372 3047 722 3315 
Q 1072 3584 1716 3584 
Q 2034 3584 2315 3537 
Q 2597 3491 2834 3397 
z
" transform="scale(0.015625)"/>
      <path id="DejaVuSans-53" d="M 1159 525 
L 1159 -1331 
L 581 -1331 
L 581 3500 
L 1159 3500 
L 1159 2969 
Q 1341 3281 1617 3432 
Q 1894 3584 2278 3584 
Q 2916 3584 3314 3078 
Q 3713 2572 3713 1747 
Q 3713 922 3314 415 
Q 2916 -91 2278 -91 
Q 1894 -91 1617 61 
Q 1341 213 1159 525 
z
M 3116 1747 
Q 3116 2381 2855 2742 
Q 2594 3103 2138 3103 
Q 1681 3103 1420 2742 
Q 1159 2381 1159 1747 
Q 1159 1113 1420 752 
Q 1681 391 2138 391 
Q 2594 391 2855 752 
Q 3116 1113 3116 1747 
z
" transform="scale(0.015625)"/>
      <path id="DejaVuSans-4f" d="M 603 4863 
L 1178 4863 
L 1178 0 
L 603 0 
L 603 4863 
z
" transform="scale(0.015625)"/>
      <path id="DejaVuSans-44" d="M 2194 1759 
Q 1497 1759 1228 1600 
Q 959 1441 959 1056 
Q 959 750 1161 570 
Q 1363 391 1709 391 
Q 2188 391 2477 730 
Q 2766 1069 2766 1631 
L 2766 1759 
L 2194 1759 
z
M 3341 1997 
L 3341 0 
L 2766 0 
L 2766 531 
Q 2569 213 2275 61 
Q 1981 -91 1556 -91 
Q 1019 -91 701 211 
Q 384 513 384 1019 
Q 384 1609 779 1909 
Q 1175 2209 1959 2209 
L 2766 2209 
L 2766 2266 
Q 2766 2663 2505 2880 
Q 2244 3097 1772 3097 
Q 1472 3097 1187 3025 
Q 903 2953 641 2809 
L 641 3341 
Q 956 3463 1253 3523 
Q 1550 3584 1831 3584 
Q 2591 3584 2966 3190 
Q 3341 2797 3341 1997 
z
" transform="scale(0.015625)"/>
      <path id="DejaVuSans-46" d="M 3122 3366 
L 3122 2828 
Q 2878 2963 2633 3030 
Q 2388 3097 2138 3097 
Q 1578 3097 1268 2742 
Q 959 2388 959 1747 
Q 959 1106 1268 751 
Q 1578 397 2138 397 
Q 2388 397 2633 464 
Q 2878 531 3122 666 
L 3122 134 
Q 2881 22 2623 -34 
Q 2366 -91 2075 -91 
Q 1284 -91 818 406 
Q 353 903 353 1747 
Q 353 2603 823 3093 
Q 1294 3584 2113 3584 
Q 2378 3584 2631 3529 
Q 2884 3475 3122 3366 
z
" transform="scale(0.015625)"/>
      <path id="DejaVuSans-51" d="M 3513 2113 
L 3513 0 
L 2938 0 
L 2938 2094 
Q 2938 2591 2744 2837 
Q 2550 3084 2163 3084 
Q 1697 3084 1428 2787 
Q 1159 2491 1159 1978 
L 1159 0 
L 581 0 
L 581 3500 
L 1159 3500 
L 1159 2956 
Q 1366 3272 1645 3428 
Q 1925 3584 2291 3584 
Q 2894 3584 3203 3211 
Q 3513 2838 3513 2113 
z
" transform="scale(0.015625)"/>
      <path id="DejaVuSans-57" d="M 1172 4494 
L 1172 3500 
L 2356 3500 
L 2356 3053 
L 1172 3053 
L 1172 1153 
Q 1172 725 1289 603 
Q 1406 481 1766 481 
L 2356 481 
L 2356 0 
L 1766 0 
Q 1100 0 847 248 
Q 594 497 594 1153 
L 594 3053 
L 172 3053 
L 172 3500 
L 594 3500 
L 594 4494 
L 1172 4494 
z
" transform="scale(0.015625)"/>
      <path id="DejaVuSans-13b0" d="M 1831 4863 
L 3431 4863 
L 3431 0 
L 2853 0 
L 2853 4384 
L 1825 4384 
Q 1516 4384 1395 4259 
Q 1275 4134 1275 3809 
L 1275 3500 
L 2222 3500 
L 2222 3053 
L 1275 3053 
L 1275 0 
L 697 0 
L 697 3053 
L 147 3053 
L 147 3500 
L 697 3500 
L 697 3744 
Q 697 4328 969 4595 
Q 1241 4863 1831 4863 
z
" transform="scale(0.015625)"/>
     </defs>
     <use xlink:href="#DejaVuSans-27"/>
     <use xlink:href="#DejaVuSans-4c" transform="translate(77 0)"/>
     <use xlink:href="#DejaVuSans-56" transform="translate(104.78125 0)"/>
     <use xlink:href="#DejaVuSans-53" transform="translate(156.875 0)"/>
     <use xlink:href="#DejaVuSans-4f" transform="translate(220.359375 0)"/>
     <use xlink:href="#DejaVuSans-44" transform="translate(248.140625 0)"/>
     <use xlink:href="#DejaVuSans-46" transform="translate(309.421875 0)"/>
     <use xlink:href="#DejaVuSans-48" transform="translate(364.40625 0)"/>
     <use xlink:href="#DejaVuSans-50" transform="translate(425.9375 0)"/>
     <use xlink:href="#DejaVuSans-48" transform="translate(523.34375 0)"/>
     <use xlink:href="#DejaVuSans-51" transform="translate(584.875 0)"/>
     <use xlink:href="#DejaVuSans-57" transform="translate(648.25 0)"/>
     <use xlink:href="#DejaVuSans-3" transform="translate(687.453125 0)"/>
     <use xlink:href="#DejaVuSans-13b0" transform="translate(719.234375 0)"/>
     <use xlink:href="#DejaVuSans-52" transform="translate(782.21875 0)"/>
     <use xlink:href="#DejaVuSans-52" transform="translate(843.40625 0)"/>
     <use xlink:href="#DejaVuSans-55" transform="translate(904.59375 0)"/>
    </g>
   </g>
  </g>
  <g id="axes_2">
   <g id="patch_19">
    <path d="M 324.802344 183.502828 
L 536.4 183.502828 
L 536.4 48.048 
L 324.802344 48.048 
z
" style="fill: #ffffff"/>
   </g>
   <g id="patch_20">
    <path d="M 334.420419 183.502828 
L 352.740562 183.502828 
L 352.740562 156.318657 
L 334.420419 156.318657 
z
" clip-path="url(#p1ef5491318)" style="fill: #1b6ca8; stroke: #222222; stroke-width: 0.5; stroke-linejoin: miter"/>
   </g>
   <g id="patch_21">
    <path d="M 403.120957 183.502828 
L 421.4411 183.502828 
L 421.4411 129.522863 
L 403.120957 129.522863 
z
" clip-path="url(#p1ef5491318)" style="fill: #1b6ca8; stroke: #222222; stroke-width: 0.5; stroke-linejoin: miter"/>
   </g>
   <g id="patch_22">
    <path d="M 471.821495 183.502828 
L 490.141638 183.502828 
L 490.141638 54.49823 
L 471.821495 54.49823 
z
" clip-path="url(#p1ef5491318)" style="fill: #1b6ca8; stroke: #222222; stroke-width: 0.5; stroke-linejoin: miter"/>
   </g>
   <g id="patch_23">
    <path d="M 352.740562 183.502828 
L 371.060706 183.502828 
L 371.060706 156.203579 
L 352.740562 156.203579 
z
" clip-path="url(#p1ef5491318)" style="fill: #c0392b; stroke: #222222; stroke-width: 0.5; stroke-linejoin: miter"/>
   </g>
   <g id="patch_24">
    <path d="M 421.4411 183.502828 
L 439.761244 183.502828 
L 439.761244 166.126909 
L 421.4411 166.126909 
z
" clip-path="url(#p1ef5491318)" style="fill: #c0392b; stroke: #222222; stroke-width: 0.5; stroke-linejoin: miter"/>
   </g>
   <g id="patch_25">
    <path d="M 490.141638 183.502828 
L 508.461781 183.502828 
L 508.461781 121.659242 
L 490.141638 121.659242 
z
" clip-path="url(#p1ef5491318)" style="fill: #c0392b; stroke: #222222; stroke-width: 0.5; stroke-linejoin: miter"/>
   </g>
   <g id="patch_26">
    <path d="M 371.060706 183.502828 
L 389.380849 183.502828 
L 389.380849 155.542379 
L 371.060706 155.542379 
z
" clip-path="url(#p1ef5491318)" style="fill: #2e8b57; stroke: #222222; stroke-width: 0.5; stroke-linejoin: miter"/>
   </g>
   <g id="patch_27">
    <path d="M 439.761244 183.502828 
L 458.081387 183.502828 
L 458.081387 139.911922 
L 439.761244 139.911922 
z
" clip-path="url(#p1ef5491318)" style="fill: #2e8b57; stroke: #222222; stroke-width: 0.5; stroke-linejoin: miter"/>
   </g>
   <g id="patch_28">
    <path d="M 508.461781 183.502828 
L 526.781925 183.502828 
L 526.781925 69.557154 
L 508.461781 69.557154 
z
" clip-path="url(#p1ef5491318)" style="fill: #2e8b57; stroke: #222222; stroke-width: 0.5; stroke-linejoin: miter"/>
   </g>
   <g id="matplotlib.axis_3">
    <g id="xtick_5">
     <g id="line2d_13">
      <g>
       <use xlink:href="#mfbf6cdb04b" x="361.900634" y="183.502828" style="stroke: #000000; stroke-width: 0.8"/>
      </g>
     </g>
     <g id="text_11">
      <!-- Roll -->
      <g transform="translate(352.813134 198.101266) scale(0.1 -0.1)">
       <use xlink:href="#DejaVuSans-35"/>
       <use xlink:href="#DejaVuSans-52" transform="translate(65 0)"/>
       <use xlink:href="#DejaVuSans-4f" transform="translate(126.1875 0)"/>
       <use xlink:href="#DejaVuSans-4f" transform="translate(153.96875 0)"/>
      </g>
     </g>
    </g>
    <g id="xtick_6">
     <g id="line2d_14">
      <g>
       <use xlink:href="#mfbf6cdb04b" x="430.601172" y="183.502828" style="stroke: #000000; stroke-width: 0.8"/>
      </g>
     </g>
     <g id="text_12">
      <!-- Pitch -->
      <g transform="translate(418.429297 198.101266) scale(0.1 -0.1)">
       <defs>
        <path id="DejaVuSans-33" d="M 1259 4147 
L 1259 2394 
L 2053 2394 
Q 2494 2394 2734 2622 
Q 2975 2850 2975 3272 
Q 2975 3691 2734 3919 
Q 2494 4147 2053 4147 
L 1259 4147 
z
M 628 4666 
L 2053 4666 
Q 2838 4666 3239 4311 
Q 3641 3956 3641 3272 
Q 3641 2581 3239 2228 
Q 2838 1875 2053 1875 
L 1259 1875 
L 1259 0 
L 628 0 
L 628 4666 
z
" transform="scale(0.015625)"/>
        <path id="DejaVuSans-4b" d="M 3513 2113 
L 3513 0 
L 2938 0 
L 2938 2094 
Q 2938 2591 2744 2837 
Q 2550 3084 2163 3084 
Q 1697 3084 1428 2787 
Q 1159 2491 1159 1978 
L 1159 0 
L 581 0 
L 581 4863 
L 1159 4863 
L 1159 2956 
Q 1366 3272 1645 3428 
Q 1925 3584 2291 3584 
Q 2894 3584 3203 3211 
Q 3513 2838 3513 2113 
z
" transform="scale(0.015625)"/>
       </defs>
       <use xlink:href="#DejaVuSans-33"/>
       <use xlink:href="#DejaVuSans-4c" transform="translate(58.09375 0)"/>
       <use xlink:href="#DejaVuSans-57" transform="translate(85.875 0)"/>
       <use xlink:href="#DejaVuSans-46" transform="translate(125.078125 0)"/>
       <use xlink:href="#DejaVuSans-4b" transform="translate(180.0625 0)"/>
      </g>
     </g>
    </g>
    <g id="xtick_7">
     <g id="line2d_15">
      <g>
       <use xlink:href="#mfbf6cdb04b" x="499.30171" y="183.502828" style="stroke: #000000; stroke-width: 0.8"/>
      </g>
     </g>
     <g id="text_13">
      <!-- Yaw -->
      <g transform="translate(489.78296 198.100484) scale(0.1 -0.1)">
       <defs>
        <path id="DejaVuSans-5a" d="M 269 3500 
L 844 3500 
L 1563 769 
L 2278 3500 
L 2956 3500 
L 3675 769 
L 4391 3500 
L 4966 3500 
L 4050 0 
L 3372 0 
L 2619 2869 
L 1863 0 
L 1184 0 
L 269 3500 
z
" transform="scale(0.015625)"/>
       </defs>
       <use xlink:href="#DejaVuSans-3c"/>
       <use xlink:href="#DejaVuSans-44" transform="translate(47.3125 0)"/>
       <use xlink:href="#DejaVuSans-5a" transform="translate(108.59375 0)"/>
      </g>
     </g>
    </g>
   </g>
   <g id="matplotlib.axis_4">
    <g id="ytick_5">
     <g id="line2d_16">
      <path d="M 324.802344 183.502828 
L 536.4 183.502828 
" clip-path="url(#p1ef5491318)" style="fill: none; stroke: #b0b0b0; stroke-opacity: 0.25; stroke-width: 0.8; stroke-linecap: square"/>
     </g>
     <g id="line2d_17">
      <g>
       <use xlink:href="#m28bd4492ca" x="324.802344" y="183.502828" style="stroke: #000000; stroke-width: 0.8"/>
      </g>
     </g>
     <g id="text_14">
      <!-- 0.0 -->
      <g transform="translate(301.899219 187.301656) scale(0.1 -0.1)">
       <use xlink:href="#DejaVuSans-13"/>
       <use xlink:href="#DejaVuSans-11" transform="translate(63.625 0)"/>
       <use xlink:href="#DejaVuSans-13" transform="translate(95.40625 0)"/>
      </g>
     </g>
    </g>
    <g id="ytick_6">
     <g id="line2d_18">
      <path d="M 324.802344 159.794797 
L 536.4 159.794797 
" clip-path="url(#p1ef5491318)" style="fill: none; stroke: #b0b0b0; stroke-opacity: 0.25; stroke-width: 0.8; stroke-linecap: square"/>
     </g>
     <g id="line2d_19">
      <g>
       <use xlink:href="#m28bd4492ca" x="324.802344" y="159.794797" style="stroke: #000000; stroke-width: 0.8"/>
      </g>
     </g>
     <g id="text_15">
      <!-- 0.1 -->
      <g transform="translate(301.899219 163.593625) scale(0.1 -0.1)">
       <defs>
        <path id="DejaVuSans-14" d="M 794 531 
L 1825 531 
L 1825 4091 
L 703 3866 
L 703 4441 
L 1819 4666 
L 2450 4666 
L 2450 531 
L 3481 531 
L 3481 0 
L 794 0 
L 794 531 
z
" transform="scale(0.015625)"/>
       </defs>
       <use xlink:href="#DejaVuSans-13"/>
       <use xlink:href="#DejaVuSans-11" transform="translate(63.625 0)"/>
       <use xlink:href="#DejaVuSans-14" transform="translate(95.40625 0)"/>
      </g>
     </g>
    </g>
    <g id="ytick_7">
     <g id="line2d_20">
      <path d="M 324.802344 136.086766 
L 536.4 136.086766 
" clip-path="url(#p1ef5491318)" style="fill: none; stroke: #b0b0b0; stroke-opacity: 0.25; stroke-width: 0.8; stroke-linecap: square"/>
     </g>
     <g id="line2d_21">
      <g>
       <use xlink:href="#m28bd4492ca" x="324.802344" y="136.086766" style="stroke: #000000; stroke-width: 0.8"/>
      </g>
     </g>
     <g id="text_16">
      <!-- 0.2 -->
      <g transform="translate(301.899219 139.885594) scale(0.1 -0.1)">
       <use xlink:href="#DejaVuSans-13"/>
       <use xlink:href="#DejaVuSans-11" transform="translate(63.625 0)"/>
       <use xlink:href="#DejaVuSans-15" transform="translate(95.40625 0)"/>
      </g>
     </g>
    </g>
    <g id="ytick_8">
     <g id="line2d_22">
      <path d="M 324.802344 112.378734 
L 536.4 112.378734 
" clip-path="url(#p1ef5491318)" style="fill: none; stroke: #b0b0b0; stroke-opacity: 0.25; stroke-width: 0.8; stroke-linecap: square"/>
     </g>
     <g id="line2d_23">
      <g>
       <use xlink:href="#m28bd4492ca" x="324.802344" y="112.378734" style="stroke: #000000; stroke-width: 0.8"/>
      </g>
     </g>
     <g id="text_17">
      <!-- 0.3 -->
      <g transform="translate(301.899219 116.177562) scale(0.1 -0.1)">
       <use xlink:href="#DejaVuSans-13"/>
       <use xlink:href="#DejaVuSans-11" transform="translate(63.625 0)"/>
       <use xlink:href="#DejaVuSans-16" transform="translate(95.40625 0)"/>
      </g>
     </g>
    </g>
    <g id="ytick_9">
     <g id="line2d_24">
      <path d="M 324.802344 88.670703 
L 536.4 88.670703 
" clip-path="url(#p1ef5491318)" style="fill: none; stroke: #b0b0b0; stroke-opacity: 0.25; stroke-width: 0.8; stroke-linecap: square"/>
     </g>
     <g id="line2d_25">
      <g>
       <use xlink:href="#m28bd4492ca" x="324.802344" y="88.670703" style="stroke: #000000; stroke-width: 0.8"/>
      </g>
     </g>
     <g id="text_18">
      <!-- 0.4 -->
      <g transform="translate(301.899219 92.469531) scale(0.1 -0.1)">
       <use xlink:href="#DejaVuSans-13"/>
       <use xlink:href="#DejaVuSans-11" transform="translate(63.625 0)"/>
       <use xlink:href="#DejaVuSans-17" transform="translate(95.40625 0)"/>
      </g>
     </g>
    </g>
    <g id="ytick_10">
     <g id="line2d_26">
      <path d="M 324.802344 64.962672 
L 536.4 64.962672 
" clip-path="url(#p1ef5491318)" style="fill: none; stroke: #b0b0b0; stroke-opacity: 0.25; stroke-width: 0.8; stroke-linecap: square"/>
     </g>
     <g id="line2d_27">
      <g>
       <use xlink:href="#m28bd4492ca" x="324.802344" y="64.962672" style="stroke: #000000; stroke-width: 0.8"/>
      </g>
     </g>
     <g id="text_19">
      <!-- 0.5 -->
      <g transform="translate(301.899219 68.7615) scale(0.1 -0.1)">
       <defs>
        <path id="DejaVuSans-18" d="M 691 4666 
L 3169 4666 
L 3169 4134 
L 1269 4134 
L 1269 2991 
Q 1406 3038 1543 3061 
Q 1681 3084 1819 3084 
Q 2600 3084 3056 2656 
Q 3513 2228 3513 1497 
Q 3513 744 3044 326 
Q 2575 -91 1722 -91 
Q 1428 -91 1123 -41 
Q 819 9 494 109 
L 494 744 
Q 775 591 1075 516 
Q 1375 441 1709 441 
Q 2250 441 2565 725 
Q 2881 1009 2881 1497 
Q 2881 1984 2565 2268 
Q 2250 2553 1709 2553 
Q 1456 2553 1204 2497 
Q 953 2441 691 2322 
L 691 4666 
z
" transform="scale(0.015625)"/>
       </defs>
       <use xlink:href="#DejaVuSans-13"/>
       <use xlink:href="#DejaVuSans-11" transform="translate(63.625 0)"/>
       <use xlink:href="#DejaVuSans-18" transform="translate(95.40625 0)"/>
      </g>
     </g>
    </g>
    <g id="text_20">
     <!-- RMS error (deg) -->
     <g transform="translate(295.496875 155.347289) rotate(-90) scale(0.1 -0.1)">
      <defs>
       <path id="DejaVuSans-47" d="M 2906 2969 
L 2906 4863 
L 3481 4863 
L 3481 0 
L 2906 0 
L 2906 525 
Q 2725 213 2448 61 
Q 2172 -91 1784 -91 
Q 1150 -91 751 415 
Q 353 922 353 1747 
Q 353 2572 751 3078 
Q 1150 3584 1784 3584 
Q 2172 3584 2448 3432 
Q 2725 3281 2906 2969 
z
M 947 1747 
Q 947 1113 1208 752 
Q 1469 391 1925 391 
Q 2381 391 2643 752 
Q 2906 1113 2906 1747 
Q 2906 2381 2643 2742 
Q 2381 3103 1925 3103 
Q 1469 3103 1208 2742 
Q 947 2381 947 1747 
z
" transform="scale(0.015625)"/>
       <path id="DejaVuSans-4a" d="M 2906 1791 
Q 2906 2416 2648 2759 
Q 2391 3103 1925 3103 
Q 1463 3103 1205 2759 
Q 947 2416 947 1791 
Q 947 1169 1205 825 
Q 1463 481 1925 481 
Q 2391 481 2648 825 
Q 2906 1169 2906 1791 
z
M 3481 434 
Q 3481 -459 3084 -895 
Q 2688 -1331 1869 -1331 
Q 1566 -1331 1297 -1286 
Q 1028 -1241 775 -1147 
L 775 -588 
Q 1028 -725 1275 -790 
Q 1522 -856 1778 -856 
Q 2344 -856 2625 -561 
Q 2906 -266 2906 331 
L 2906 616 
Q 2728 306 2450 153 
Q 2172 0 1784 0 
Q 1141 0 747 490 
Q 353 981 353 1791 
Q 353 2603 747 3093 
Q 1141 3584 1784 3584 
Q 2172 3584 2450 3431 
Q 2728 3278 2906 2969 
L 2906 3500 
L 3481 3500 
L 3481 434 
z
" transform="scale(0.015625)"/>
      </defs>
      <use xlink:href="#DejaVuSans-35"/>
      <use xlink:href="#DejaVuSans-30" transform="translate(69.484375 0)"/>
      <use xlink:href="#DejaVuSans-36" transform="translate(155.765625 0)"/>
      <use xlink:href="#DejaVuSans-3" transform="translate(219.25 0)"/>
      <use xlink:href="#DejaVuSans-48" transform="translate(251.03125 0)"/>
      <use xlink:href="#DejaVuSans-55" transform="translate(312.5625 0)"/>
      <use xlink:href="#DejaVuSans-55" transform="translate(351.921875 0)"/>
      <use xlink:href="#DejaVuSans-52" transform="translate(390.828125 0)"/>
      <use xlink:href="#DejaVuSans-55" transform="translate(452.015625 0)"/>
      <use xlink:href="#DejaVuSans-3" transform="translate(493.125 0)"/>
      <use xlink:href="#DejaVuSans-b" transform="translate(524.90625 0)"/>
      <use xlink:href="#DejaVuSans-47" transform="translate(563.921875 0)"/>
      <use xlink:href="#DejaVuSans-48" transform="translate(627.40625 0)"/>
      <use xlink:href="#DejaVuSans-4a" transform="translate(688.9375 0)"/>
      <use xlink:href="#DejaVuSans-c" transform="translate(752.421875 0)"/>
     </g>
    </g>
   </g>
   <g id="patch_29">
    <path d="M 324.802344 183.502828 
L 324.802344 48.048 
" style="fill: none; stroke: #000000; stroke-width: 0.8; stroke-linejoin: miter; stroke-linecap: square"/>
   </g>
   <g id="patch_30">
    <path d="M 536.4 183.502828 
L 536.4 48.048 
" style="fill: none; stroke: #000000; stroke-width: 0.8; stroke-linejoin: miter; stroke-linecap: square"/>
   </g>
   <g id="patch_31">
    <path d="M 324.802344 183.502828 
L 536.4 183.502828 
" style="fill: none; stroke: #000000; stroke-width: 0.8; stroke-linejoin: miter; stroke-linecap: square"/>
   </g>
   <g id="patch_32">
    <path d="M 324.802344 48.048 
L 536.4 48.048 
" style="fill: none; stroke: #000000; stroke-width: 0.8; stroke-linejoin: miter; stroke-linecap: square"/>
   </g>
   <g id="text_21">
    <!-- Attitude floor -->
    <g transform="translate(397.666797 42.048) scale(0.1 -0.1)">
     <defs>
      <path id="DejaVuSans-24" d="M 2188 4044 
L 1331 1722 
L 3047 1722 
L 2188 4044 
z
M 1831 4666 
L 2547 4666 
L 4325 0 
L 3669 0 
L 3244 1197 
L 1141 1197 
L 716 0 
L 50 0 
L 1831 4666 
z
" transform="scale(0.015625)"/>
      <path id="DejaVuSans-58" d="M 544 1381 
L 544 3500 
L 1119 3500 
L 1119 1403 
Q 1119 906 1312 657 
Q 1506 409 1894 409 
Q 2359 409 2629 706 
Q 2900 1003 2900 1516 
L 2900 3500 
L 3475 3500 
L 3475 0 
L 2900 0 
L 2900 538 
Q 2691 219 2414 64 
Q 2138 -91 1772 -91 
Q 1169 -91 856 284 
Q 544 659 544 1381 
z
M 1991 3584 
L 1991 3584 
z
" transform="scale(0.015625)"/>
     </defs>
     <use xlink:href="#DejaVuSans-24"/>
     <use xlink:href="#DejaVuSans-57" transform="translate(66.65625 0)"/>
     <use xlink:href="#DejaVuSans-57" transform="translate(105.859375 0)"/>
     <use xlink:href="#DejaVuSans-4c" transform="translate(145.0625 0)"/>
     <use xlink:href="#DejaVuSans-57" transform="translate(172.84375 0)"/>
     <use xlink:href="#DejaVuSans-58" transform="translate(212.046875 0)"/>
     <use xlink:href="#DejaVuSans-47" transform="translate(275.421875 0)"/>
     <use xlink:href="#DejaVuSans-48" transform="translate(338.90625 0)"/>
     <use xlink:href="#DejaVuSans-3" transform="translate(400.4375 0)"/>
     <use xlink:href="#DejaVuSans-13b0" transform="translate(432.21875 0)"/>
     <use xlink:href="#DejaVuSans-52" transform="translate(495.203125 0)"/>
     <use xlink:href="#DejaVuSans-52" transform="translate(556.390625 0)"/>
     <use xlink:href="#DejaVuSans-55" transform="translate(617.578125 0)"/>
    </g>
   </g>
  </g>
  <g id="axes_3">
   <g id="patch_33">
    <path d="M 55.882344 361 
L 267.48 361 
L 267.48 225.545172 
L 55.882344 225.545172 
z
" style="fill: #ffffff"/>
   </g>
   <g id="patch_34">
    <path d="M 77.372731 361 
L 113.741078 361 
L 113.741078 231.995402 
L 77.372731 231.995402 
z
" clip-path="url(#pd0f1de02e9)" style="fill: #1b6ca8; stroke: #222222; stroke-width: 0.5; stroke-linejoin: miter"/>
   </g>
   <g id="patch_35">
    <path d="M 143.496998 361 
L 179.865345 361 
L 179.865345 296.8979 
L 143.496998 296.8979 
z
" clip-path="url(#pd0f1de02e9)" style="fill: #c0392b; stroke: #222222; stroke-width: 0.5; stroke-linejoin: miter"/>
   </g>
   <g id="patch_36">
    <path d="M 209.621266 361 
L 245.989613 361 
L 245.989613 266.055875 
L 209.621266 266.055875 
z
" clip-path="url(#pd0f1de02e9)" style="fill: #2e8b57; stroke: #222222; stroke-width: 0.5; stroke-linejoin: miter"/>
   </g>
   <g id="matplotlib.axis_5">
    <g id="xtick_8">
     <g id="line2d_28">
      <g>
       <use xlink:href="#mfbf6cdb04b" x="95.556904" y="361" style="stroke: #000000; stroke-width: 0.8"/>
      </g>
     </g>
     <g id="text_22">
      <!-- OU-II -->
      <g transform="translate(83.207686 375.597656) scale(0.1 -0.1)">
       <defs>
        <path id="DejaVuSans-32" d="M 2522 4238 
Q 1834 4238 1429 3725 
Q 1025 3213 1025 2328 
Q 1025 1447 1429 934 
Q 1834 422 2522 422 
Q 3209 422 3611 934 
Q 4013 1447 4013 2328 
Q 4013 3213 3611 3725 
Q 3209 4238 2522 4238 
z
M 2522 4750 
Q 3503 4750 4090 4092 
Q 4678 3434 4678 2328 
Q 4678 1225 4090 567 
Q 3503 -91 2522 -91 
Q 1538 -91 948 565 
Q 359 1222 359 2328 
Q 359 3434 948 4092 
Q 1538 4750 2522 4750 
z
" transform="scale(0.015625)"/>
        <path id="DejaVuSans-38" d="M 556 4666 
L 1191 4666 
L 1191 1831 
Q 1191 1081 1462 751 
Q 1734 422 2344 422 
Q 2950 422 3222 751 
Q 3494 1081 3494 1831 
L 3494 4666 
L 4128 4666 
L 4128 1753 
Q 4128 841 3676 375 
Q 3225 -91 2344 -91 
Q 1459 -91 1007 375 
Q 556 841 556 1753 
L 556 4666 
z
" transform="scale(0.015625)"/>
        <path id="DejaVuSans-2c" d="M 628 4666 
L 1259 4666 
L 1259 0 
L 628 0 
L 628 4666 
z
" transform="scale(0.015625)"/>
       </defs>
       <use xlink:href="#DejaVuSans-32"/>
       <use xlink:href="#DejaVuSans-38" transform="translate(78.71875 0)"/>
       <use xlink:href="#DejaVuSans-10" transform="translate(151.90625 0)"/>
       <use xlink:href="#DejaVuSans-2c" transform="translate(187.984375 0)"/>
       <use xlink:href="#DejaVuSans-2c" transform="translate(217.484375 0)"/>
      </g>
     </g>
    </g>
    <g id="xtick_9">
     <g id="line2d_29">
      <g>
       <use xlink:href="#mfbf6cdb04b" x="161.681172" y="361" style="stroke: #000000; stroke-width: 0.8"/>
      </g>
     </g>
     <g id="text_23">
      <!-- OU-III -->
      <g transform="translate(147.856953 375.597656) scale(0.1 -0.1)">
       <use xlink:href="#DejaVuSans-32"/>
       <use xlink:href="#DejaVuSans-38" transform="translate(78.71875 0)"/>
       <use xlink:href="#DejaVuSans-10" transform="translate(151.90625 0)"/>
       <use xlink:href="#DejaVuSans-2c" transform="translate(187.984375 0)"/>
       <use xlink:href="#DejaVuSans-2c" transform="translate(217.484375 0)"/>
       <use xlink:href="#DejaVuSans-2c" transform="translate(246.984375 0)"/>
      </g>
     </g>
    </g>
    <g id="xtick_10">
     <g id="line2d_30">
      <g>
       <use xlink:href="#mfbf6cdb04b" x="227.805439" y="361" style="stroke: #000000; stroke-width: 0.8"/>
      </g>
     </g>
     <g id="text_24">
      <!-- TFG -->
      <g transform="translate(218.001533 375.597656) scale(0.1 -0.1)">
       <defs>
        <path id="DejaVuSans-37" d="M -19 4666 
L 3928 4666 
L 3928 4134 
L 2272 4134 
L 2272 0 
L 1638 0 
L 1638 4134 
L -19 4134 
L -19 4666 
z
" transform="scale(0.015625)"/>
        <path id="DejaVuSans-29" d="M 628 4666 
L 3309 4666 
L 3309 4134 
L 1259 4134 
L 1259 2759 
L 3109 2759 
L 3109 2228 
L 1259 2228 
L 1259 0 
L 628 0 
L 628 4666 
z
" transform="scale(0.015625)"/>
        <path id="DejaVuSans-2a" d="M 3809 666 
L 3809 1919 
L 2778 1919 
L 2778 2438 
L 4434 2438 
L 4434 434 
Q 4069 175 3628 42 
Q 3188 -91 2688 -91 
Q 1594 -91 976 548 
Q 359 1188 359 2328 
Q 359 3472 976 4111 
Q 1594 4750 2688 4750 
Q 3144 4750 3555 4637 
Q 3966 4525 4313 4306 
L 4313 3634 
Q 3963 3931 3569 4081 
Q 3175 4231 2741 4231 
Q 1884 4231 1454 3753 
Q 1025 3275 1025 2328 
Q 1025 1384 1454 906 
Q 1884 428 2741 428 
Q 3075 428 3337 486 
Q 3600 544 3809 666 
z
" transform="scale(0.015625)"/>
       </defs>
       <use xlink:href="#DejaVuSans-37"/>
       <use xlink:href="#DejaVuSans-29" transform="translate(61.078125 0)"/>
       <use xlink:href="#DejaVuSans-2a" transform="translate(118.59375 0)"/>
      </g>
     </g>
    </g>
   </g>
   <g id="matplotlib.axis_6">
    <g id="ytick_11">
     <g id="line2d_31">
      <path d="M 55.882344 361 
L 267.48 361 
" clip-path="url(#pd0f1de02e9)" style="fill: none; stroke: #b0b0b0; stroke-opacity: 0.25; stroke-width: 0.8; stroke-linecap: square"/>
     </g>
     <g id="line2d_32">
      <g>
       <use xlink:href="#m28bd4492ca" x="55.882344" y="361" style="stroke: #000000; stroke-width: 0.8"/>
      </g>
     </g>
     <g id="text_25">
      <!-- 0.00 -->
      <g transform="translate(26.616719 364.798828) scale(0.1 -0.1)">
       <use xlink:href="#DejaVuSans-13"/>
       <use xlink:href="#DejaVuSans-11" transform="translate(63.625 0)"/>
       <use xlink:href="#DejaVuSans-13" transform="translate(95.40625 0)"/>
       <use xlink:href="#DejaVuSans-13" transform="translate(159.03125 0)"/>
      </g>
     </g>
    </g>
    <g id="ytick_12">
     <g id="line2d_33">
      <path d="M 55.882344 330.634545 
L 267.48 330.634545 
" clip-path="url(#pd0f1de02e9)" style="fill: none; stroke: #b0b0b0; stroke-opacity: 0.25; stroke-width: 0.8; stroke-linecap: square"/>
     </g>
     <g id="line2d_34">
      <g>
       <use xlink:href="#m28bd4492ca" x="55.882344" y="330.634545" style="stroke: #000000; stroke-width: 0.8"/>
      </g>
     </g>
     <g id="text_26">
      <!-- 0.01 -->
      <g transform="translate(26.616719 334.433373) scale(0.1 -0.1)">
       <use xlink:href="#DejaVuSans-13"/>
       <use xlink:href="#DejaVuSans-11" transform="translate(63.625 0)"/>
       <use xlink:href="#DejaVuSans-13" transform="translate(95.40625 0)"/>
       <use xlink:href="#DejaVuSans-14" transform="translate(159.03125 0)"/>
      </g>
     </g>
    </g>
    <g id="ytick_13">
     <g id="line2d_35">
      <path d="M 55.882344 300.26909 
L 267.48 300.26909 
" clip-path="url(#pd0f1de02e9)" style="fill: none; stroke: #b0b0b0; stroke-opacity: 0.25; stroke-width: 0.8; stroke-linecap: square"/>
     </g>
     <g id="line2d_36">
      <g>
       <use xlink:href="#m28bd4492ca" x="55.882344" y="300.26909" style="stroke: #000000; stroke-width: 0.8"/>
      </g>
     </g>
     <g id="text_27">
      <!-- 0.02 -->
      <g transform="translate(26.616719 304.067918) scale(0.1 -0.1)">
       <use xlink:href="#DejaVuSans-13"/>
       <use xlink:href="#DejaVuSans-11" transform="translate(63.625 0)"/>
       <use xlink:href="#DejaVuSans-13" transform="translate(95.40625 0)"/>
       <use xlink:href="#DejaVuSans-15" transform="translate(159.03125 0)"/>
      </g>
     </g>
    </g>
    <g id="ytick_14">
     <g id="line2d_37">
      <path d="M 55.882344 269.903635 
L 267.48 269.903635 
" clip-path="url(#pd0f1de02e9)" style="fill: none; stroke: #b0b0b0; stroke-opacity: 0.25; stroke-width: 0.8; stroke-linecap: square"/>
     </g>
     <g id="line2d_38">
      <g>
       <use xlink:href="#m28bd4492ca" x="55.882344" y="269.903635" style="stroke: #000000; stroke-width: 0.8"/>
      </g>
     </g>
     <g id="text_28">
      <!-- 0.03 -->
      <g transform="translate(26.616719 273.702464) scale(0.1 -0.1)">
       <use xlink:href="#DejaVuSans-13"/>
       <use xlink:href="#DejaVuSans-11" transform="translate(63.625 0)"/>
       <use xlink:href="#DejaVuSans-13" transform="translate(95.40625 0)"/>
       <use xlink:href="#DejaVuSans-16" transform="translate(159.03125 0)"/>
      </g>
     </g>
    </g>
    <g id="ytick_15">
     <g id="line2d_39">
      <path d="M 55.882344 239.538181 
L 267.48 239.538181 
" clip-path="url(#pd0f1de02e9)" style="fill: none; stroke: #b0b0b0; stroke-opacity: 0.25; stroke-width: 0.8; stroke-linecap: square"/>
     </g>
     <g id="line2d_40">
      <g>
       <use xlink:href="#m28bd4492ca" x="55.882344" y="239.538181" style="stroke: #000000; stroke-width: 0.8"/>
      </g>
     </g>
     <g id="text_29">
      <!-- 0.04 -->
      <g transform="translate(26.616719 243.337009) scale(0.1 -0.1)">
       <use xlink:href="#DejaVuSans-13"/>
       <use xlink:href="#DejaVuSans-11" transform="translate(63.625 0)"/>
       <use xlink:href="#DejaVuSans-13" transform="translate(95.40625 0)"/>
       <use xlink:href="#DejaVuSans-17" transform="translate(159.03125 0)"/>
      </g>
     </g>
    </g>
    <g id="text_30">
     <!-- RMS (m s$^{-2}$) -->
     <g transform="translate(20.214375 324.172586) rotate(-90) scale(0.1 -0.1)">
      <defs>
       <path id="DejaVuSans-c9c" d="M 678 2272 
L 4684 2272 
L 4684 1741 
L 678 1741 
L 678 2272 
z
" transform="scale(0.015625)"/>
      </defs>
      <use xlink:href="#DejaVuSans-35" transform="translate(0 0.746875)"/>
      <use xlink:href="#DejaVuSans-30" transform="translate(69.482422 0.746875)"/>
      <use xlink:href="#DejaVuSans-36" transform="translate(155.761719 0.746875)"/>
      <use xlink:href="#DejaVuSans-3" transform="translate(219.238281 0.746875)"/>
      <use xlink:href="#DejaVuSans-b" transform="translate(251.025391 0.746875)"/>
      <use xlink:href="#DejaVuSans-50" transform="translate(290.039062 0.746875)"/>
      <use xlink:href="#DejaVuSans-3" transform="translate(387.451172 0.746875)"/>
      <use xlink:href="#DejaVuSans-56" transform="translate(419.238281 0.746875)"/>
      <use xlink:href="#DejaVuSans-c9c" transform="translate(472.294922 42.046875) scale(0.7)"/>
      <use xlink:href="#DejaVuSans-15" transform="translate(530.947266 42.046875) scale(0.7)"/>
      <use xlink:href="#DejaVuSans-c" transform="translate(578.217773 0.746875)"/>
     </g>
    </g>
   </g>
   <g id="patch_37">
    <path d="M 55.882344 361 
L 55.882344 225.545172 
" style="fill: none; stroke: #000000; stroke-width: 0.8; stroke-linejoin: miter; stroke-linecap: square"/>
   </g>
   <g id="patch_38">
    <path d="M 267.48 361 
L 267.48 225.545172 
" style="fill: none; stroke: #000000; stroke-width: 0.8; stroke-linejoin: miter; stroke-linecap: square"/>
   </g>
   <g id="patch_39">
    <path d="M 55.882344 361 
L 267.48 361 
" style="fill: none; stroke: #000000; stroke-width: 0.8; stroke-linejoin: miter; stroke-linecap: square"/>
   </g>
   <g id="patch_40">
    <path d="M 55.882344 225.545172 
L 267.48 225.545172 
" style="fill: none; stroke: #000000; stroke-width: 0.8; stroke-linejoin: miter; stroke-linecap: square"/>
   </g>
   <g id="text_31">
    <!-- Estimator-generated accel bias -->
    <g transform="translate(83.809297 219.545172) scale(0.1 -0.1)">
     <defs>
      <path id="DejaVuSans-28" d="M 628 4666 
L 3578 4666 
L 3578 4134 
L 1259 4134 
L 1259 2753 
L 3481 2753 
L 3481 2222 
L 1259 2222 
L 1259 531 
L 3634 531 
L 3634 0 
L 628 0 
L 628 4666 
z
" transform="scale(0.015625)"/>
      <path id="DejaVuSans-45" d="M 3116 1747 
Q 3116 2381 2855 2742 
Q 2594 3103 2138 3103 
Q 1681 3103 1420 2742 
Q 1159 2381 1159 1747 
Q 1159 1113 1420 752 
Q 1681 391 2138 391 
Q 2594 391 2855 752 
Q 3116 1113 3116 1747 
z
M 1159 2969 
Q 1341 3281 1617 3432 
Q 1894 3584 2278 3584 
Q 2916 3584 3314 3078 
Q 3713 2572 3713 1747 
Q 3713 922 3314 415 
Q 2916 -91 2278 -91 
Q 1894 -91 1617 61 
Q 1341 213 1159 525 
L 1159 0 
L 581 0 
L 581 4863 
L 1159 4863 
L 1159 2969 
z
" transform="scale(0.015625)"/>
     </defs>
     <use xlink:href="#DejaVuSans-28"/>
     <use xlink:href="#DejaVuSans-56" transform="translate(63.1875 0)"/>
     <use xlink:href="#DejaVuSans-57" transform="translate(115.28125 0)"/>
     <use xlink:href="#DejaVuSans-4c" transform="translate(154.484375 0)"/>
     <use xlink:href="#DejaVuSans-50" transform="translate(182.265625 0)"/>
     <use xlink:href="#DejaVuSans-44" transform="translate(279.671875 0)"/>
     <use xlink:href="#DejaVuSans-57" transform="translate(340.953125 0)"/>
     <use xlink:href="#DejaVuSans-52" transform="translate(380.15625 0)"/>
     <use xlink:href="#DejaVuSans-55" transform="translate(441.34375 0)"/>
     <use xlink:href="#DejaVuSans-10" transform="translate(476.0625 0)"/>
     <use xlink:href="#DejaVuSans-4a" transform="translate(512.140625 0)"/>
     <use xlink:href="#DejaVuSans-48" transform="translate(575.625 0)"/>
     <use xlink:href="#DejaVuSans-51" transform="translate(637.15625 0)"/>
     <use xlink:href="#DejaVuSans-48" transform="translate(700.53125 0)"/>
     <use xlink:href="#DejaVuSans-55" transform="translate(762.0625 0)"/>
     <use xlink:href="#DejaVuSans-44" transform="translate(803.171875 0)"/>
     <use xlink:href="#DejaVuSans-57" transform="translate(864.453125 0)"/>
     <use xlink:href="#DejaVuSans-48" transform="translate(903.65625 0)"/>
     <use xlink:href="#DejaVuSans-47" transform="translate(965.1875 0)"/>
     <use xlink:href="#DejaVuSans-3" transform="translate(1028.671875 0)"/>
     <use xlink:href="#DejaVuSans-44" transform="translate(1060.453125 0)"/>
     <use xlink:href="#DejaVuSans-46" transform="translate(1121.734375 0)"/>
     <use xlink:href="#DejaVuSans-46" transform="translate(1176.71875 0)"/>
     <use xlink:href="#DejaVuSans-48" transform="translate(1231.703125 0)"/>
     <use xlink:href="#DejaVuSans-4f" transform="translate(1293.234375 0)"/>
     <use xlink:href="#DejaVuSans-3" transform="translate(1321.015625 0)"/>
     <use xlink:href="#DejaVuSans-45" transform="translate(1352.796875 0)"/>
     <use xlink:href="#DejaVuSans-4c" transform="translate(1416.28125 0)"/>
     <use xlink:href="#DejaVuSans-44" transform="translate(1444.0625 0)"/>
     <use xlink:href="#DejaVuSans-56" transform="translate(1505.34375 0)"/>
    </g>
   </g>
  </g>
  <g id="axes_4">
   <g id="patch_41">
    <path d="M 324.802344 361 
L 536.4 361 
L 536.4 225.545172 
L 324.802344 225.545172 
z
" style="fill: #ffffff"/>
   </g>
   <g id="patch_42">
    <path d="M 346.292731 61000.710084 
L 382.661078 61000.710084 
L 382.661078 328.093906 
L 346.292731 328.093906 
z
" clip-path="url(#pa6d53108b1)" style="fill: #1b6ca8; stroke: #222222; stroke-width: 0.5; stroke-linejoin: miter"/>
   </g>
   <g id="patch_43">
    <path d="M 412.416998 61000.710084 
L 448.785345 61000.710084 
L 448.785345 331.907777 
L 412.416998 331.907777 
z
" clip-path="url(#pa6d53108b1)" style="fill: #c0392b; stroke: #222222; stroke-width: 0.5; stroke-linejoin: miter"/>
   </g>
   <g id="patch_44">
    <path d="M 478.541266 61000.710084 
L 514.909613 61000.710084 
L 514.909613 243.900321 
L 478.541266 243.900321 
z
" clip-path="url(#pa6d53108b1)" style="fill: #2e8b57; stroke: #222222; stroke-width: 0.5; stroke-linejoin: miter"/>
   </g>
   <g id="matplotlib.axis_7">
    <g id="xtick_11">
     <g id="line2d_41">
      <g>
       <use xlink:href="#mfbf6cdb04b" x="364.476904" y="361" style="stroke: #000000; stroke-width: 0.8"/>
      </g>
     </g>
     <g id="text_32">
      <!-- OU-II -->
      <g transform="translate(352.127686 375.597656) scale(0.1 -0.1)">
       <use xlink:href="#DejaVuSans-32"/>
       <use xlink:href="#DejaVuSans-38" transform="translate(78.71875 0)"/>
       <use xlink:href="#DejaVuSans-10" transform="translate(151.90625 0)"/>
       <use xlink:href="#DejaVuSans-2c" transform="translate(187.984375 0)"/>
       <use xlink:href="#DejaVuSans-2c" transform="translate(217.484375 0)"/>
      </g>
     </g>
    </g>
    <g id="xtick_12">
     <g id="line2d_42">
      <g>
       <use xlink:href="#mfbf6cdb04b" x="430.601172" y="361" style="stroke: #000000; stroke-width: 0.8"/>
      </g>
     </g>
     <g id="text_33">
      <!-- OU-III -->
      <g transform="translate(416.776953 375.597656) scale(0.1 -0.1)">
       <use xlink:href="#DejaVuSans-32"/>
       <use xlink:href="#DejaVuSans-38" transform="translate(78.71875 0)"/>
       <use xlink:href="#DejaVuSans-10" transform="translate(151.90625 0)"/>
       <use xlink:href="#DejaVuSans-2c" transform="translate(187.984375 0)"/>
       <use xlink:href="#DejaVuSans-2c" transform="translate(217.484375 0)"/>
       <use xlink:href="#DejaVuSans-2c" transform="translate(246.984375 0)"/>
      </g>
     </g>
    </g>
    <g id="xtick_13">
     <g id="line2d_43">
      <g>
       <use xlink:href="#mfbf6cdb04b" x="496.725439" y="361" style="stroke: #000000; stroke-width: 0.8"/>
      </g>
     </g>
     <g id="text_34">
      <!-- TFG -->
      <g transform="translate(486.921533 375.597656) scale(0.1 -0.1)">
       <use xlink:href="#DejaVuSans-37"/>
       <use xlink:href="#DejaVuSans-29" transform="translate(61.078125 0)"/>
       <use xlink:href="#DejaVuSans-2a" transform="translate(118.59375 0)"/>
      </g>
     </g>
    </g>
   </g>
   <g id="matplotlib.axis_8">
    <g id="ytick_16">
     <g id="line2d_44">
      <path d="M 324.802344 331.097689 
L 536.4 331.097689 
" clip-path="url(#pa6d53108b1)" style="fill: none; stroke: #b0b0b0; stroke-opacity: 0.25; stroke-width: 0.8; stroke-linecap: square"/>
     </g>
     <g id="line2d_45">
      <g>
       <use xlink:href="#m28bd4492ca" x="324.802344" y="331.097689" style="stroke: #000000; stroke-width: 0.8"/>
      </g>
     </g>
     <g id="text_35">
      <!-- $\mathdefault{10^{-5}}$ -->
      <g transform="translate(294.302344 335.747689) scale(0.1 -0.1)">
       <use xlink:href="#DejaVuSans-14" transform="translate(0 0.665625)"/>
       <use xlink:href="#DejaVuSans-13" transform="translate(63.623047 0.665625)"/>
       <use xlink:href="#DejaVuSans-c9c" transform="translate(128.203125 41.965625) scale(0.7)"/>
       <use xlink:href="#DejaVuSans-18" transform="translate(186.855469 41.965625) scale(0.7)"/>
      </g>
     </g>
    </g>
    <g id="ytick_17">
     <g id="line2d_46">
      <path d="M 324.802344 270.123204 
L 536.4 270.123204 
" clip-path="url(#pa6d53108b1)" style="fill: none; stroke: #b0b0b0; stroke-opacity: 0.25; stroke-width: 0.8; stroke-linecap: square"/>
     </g>
     <g id="line2d_47">
      <g>
       <use xlink:href="#m28bd4492ca" x="324.802344" y="270.123204" style="stroke: #000000; stroke-width: 0.8"/>
      </g>
     </g>
     <g id="text_36">
      <!-- $\mathdefault{10^{-4}}$ -->
      <g transform="translate(294.302344 274.773204) scale(0.1 -0.1)">
       <use xlink:href="#DejaVuSans-14" transform="translate(0 0.665625)"/>
       <use xlink:href="#DejaVuSans-13" transform="translate(63.623047 0.665625)"/>
       <use xlink:href="#DejaVuSans-c9c" transform="translate(128.203125 41.965625) scale(0.7)"/>
       <use xlink:href="#DejaVuSans-17" transform="translate(186.855469 41.965625) scale(0.7)"/>
      </g>
     </g>
    </g>
    <g id="ytick_18">
     <g id="line2d_48">
      <defs>
       <path id="m0e919ffb32" d="M 0 0 
L -2 0 
" style="stroke: #000000; stroke-width: 0.6"/>
      </defs>
      <g>
       <use xlink:href="#m0e919ffb32" x="324.802344" y="355.361876" style="stroke: #000000; stroke-width: 0.6"/>
      </g>
     </g>
    </g>
    <g id="ytick_19">
     <g id="line2d_49">
      <g>
       <use xlink:href="#m0e919ffb32" x="324.802344" y="349.452838" style="stroke: #000000; stroke-width: 0.6"/>
      </g>
     </g>
    </g>
    <g id="ytick_20">
     <g id="line2d_50">
      <g>
       <use xlink:href="#m0e919ffb32" x="324.802344" y="344.624802" style="stroke: #000000; stroke-width: 0.6"/>
      </g>
     </g>
    </g>
    <g id="ytick_21">
     <g id="line2d_51">
      <g>
       <use xlink:href="#m0e919ffb32" x="324.802344" y="340.542756" style="stroke: #000000; stroke-width: 0.6"/>
      </g>
     </g>
    </g>
    <g id="ytick_22">
     <g id="line2d_52">
      <g>
       <use xlink:href="#m0e919ffb32" x="324.802344" y="337.006727" style="stroke: #000000; stroke-width: 0.6"/>
      </g>
     </g>
    </g>
    <g id="ytick_23">
     <g id="line2d_53">
      <g>
       <use xlink:href="#m0e919ffb32" x="324.802344" y="333.887729" style="stroke: #000000; stroke-width: 0.6"/>
      </g>
     </g>
    </g>
    <g id="ytick_24">
     <g id="line2d_54">
      <g>
       <use xlink:href="#m0e919ffb32" x="324.802344" y="312.74254" style="stroke: #000000; stroke-width: 0.6"/>
      </g>
     </g>
    </g>
    <g id="ytick_25">
     <g id="line2d_55">
      <g>
       <use xlink:href="#m0e919ffb32" x="324.802344" y="302.005466" style="stroke: #000000; stroke-width: 0.6"/>
      </g>
     </g>
    </g>
    <g id="ytick_26">
     <g id="line2d_56">
      <g>
       <use xlink:href="#m0e919ffb32" x="324.802344" y="294.387391" style="stroke: #000000; stroke-width: 0.6"/>
      </g>
     </g>
    </g>
    <g id="ytick_27">
     <g id="line2d_57">
      <g>
       <use xlink:href="#m0e919ffb32" x="324.802344" y="288.478353" style="stroke: #000000; stroke-width: 0.6"/>
      </g>
     </g>
    </g>
    <g id="ytick_28">
     <g id="line2d_58">
      <g>
       <use xlink:href="#m0e919ffb32" x="324.802344" y="283.650318" style="stroke: #000000; stroke-width: 0.6"/>
      </g>
     </g>
    </g>
    <g id="ytick_29">
     <g id="line2d_59">
      <g>
       <use xlink:href="#m0e919ffb32" x="324.802344" y="279.568272" style="stroke: #000000; stroke-width: 0.6"/>
      </g>
     </g>
    </g>
    <g id="ytick_30">
     <g id="line2d_60">
      <g>
       <use xlink:href="#m0e919ffb32" x="324.802344" y="276.032242" style="stroke: #000000; stroke-width: 0.6"/>
      </g>
     </g>
    </g>
    <g id="ytick_31">
     <g id="line2d_61">
      <g>
       <use xlink:href="#m0e919ffb32" x="324.802344" y="272.913244" style="stroke: #000000; stroke-width: 0.6"/>
      </g>
     </g>
    </g>
    <g id="ytick_32">
     <g id="line2d_62">
      <g>
       <use xlink:href="#m0e919ffb32" x="324.802344" y="251.768055" style="stroke: #000000; stroke-width: 0.6"/>
      </g>
     </g>
    </g>
    <g id="ytick_33">
     <g id="line2d_63">
      <g>
       <use xlink:href="#m0e919ffb32" x="324.802344" y="241.030982" style="stroke: #000000; stroke-width: 0.6"/>
      </g>
     </g>
    </g>
    <g id="ytick_34">
     <g id="line2d_64">
      <g>
       <use xlink:href="#m0e919ffb32" x="324.802344" y="233.412907" style="stroke: #000000; stroke-width: 0.6"/>
      </g>
     </g>
    </g>
    <g id="ytick_35">
     <g id="line2d_65">
      <g>
       <use xlink:href="#m0e919ffb32" x="324.802344" y="227.503868" style="stroke: #000000; stroke-width: 0.6"/>
      </g>
     </g>
    </g>
    <g id="text_37">
     <!-- RMS (rad s$^{-1}$) -->
     <g transform="translate(287.9 327.572586) rotate(-90) scale(0.1 -0.1)">
      <use xlink:href="#DejaVuSans-35" transform="translate(0 0.665625)"/>
      <use xlink:href="#DejaVuSans-30" transform="translate(69.482422 0.665625)"/>
      <use xlink:href="#DejaVuSans-36" transform="translate(155.761719 0.665625)"/>
      <use xlink:href="#DejaVuSans-3" transform="translate(219.238281 0.665625)"/>
      <use xlink:href="#DejaVuSans-b" transform="translate(251.025391 0.665625)"/>
      <use xlink:href="#DejaVuSans-55" transform="translate(290.039062 0.665625)"/>
      <use xlink:href="#DejaVuSans-44" transform="translate(331.152344 0.665625)"/>
      <use xlink:href="#DejaVuSans-47" transform="translate(392.431641 0.665625)"/>
      <use xlink:href="#DejaVuSans-3" transform="translate(455.908203 0.665625)"/>
      <use xlink:href="#DejaVuSans-56" transform="translate(487.695312 0.665625)"/>
      <use xlink:href="#DejaVuSans-c9c" transform="translate(540.751953 41.965625) scale(0.7)"/>
      <use xlink:href="#DejaVuSans-14" transform="translate(599.404297 41.965625) scale(0.7)"/>
      <use xlink:href="#DejaVuSans-c" transform="translate(646.674805 0.665625)"/>
     </g>
    </g>
   </g>
   <g id="patch_45">
    <path d="M 324.802344 361 
L 324.802344 225.545172 
" style="fill: none; stroke: #000000; stroke-width: 0.8; stroke-linejoin: miter; stroke-linecap: square"/>
   </g>
   <g id="patch_46">
    <path d="M 536.4 361 
L 536.4 225.545172 
" style="fill: none; stroke: #000000; stroke-width: 0.8; stroke-linejoin: miter; stroke-linecap: square"/>
   </g>
   <g id="patch_47">
    <path d="M 324.802344 361 
L 536.4 361 
" style="fill: none; stroke: #000000; stroke-width: 0.8; stroke-linejoin: miter; stroke-linecap: square"/>
   </g>
   <g id="patch_48">
    <path d="M 324.802344 225.545172 
L 536.4 225.545172 
" style="fill: none; stroke: #000000; stroke-width: 0.8; stroke-linejoin: miter; stroke-linecap: square"/>
   </g>
   <g id="text_38">
    <!-- Estimator-generated gyro bias -->
    <g transform="translate(354.619141 219.545172) scale(0.1 -0.1)">
     <defs>
      <path id="DejaVuSans-5c" d="M 2059 -325 
Q 1816 -950 1584 -1140 
Q 1353 -1331 966 -1331 
L 506 -1331 
L 506 -850 
L 844 -850 
Q 1081 -850 1212 -737 
Q 1344 -625 1503 -206 
L 1606 56 
L 191 3500 
L 800 3500 
L 1894 763 
L 2988 3500 
L 3597 3500 
L 2059 -325 
z
" transform="scale(0.015625)"/>
     </defs>
     <use xlink:href="#DejaVuSans-28"/>
     <use xlink:href="#DejaVuSans-56" transform="translate(63.1875 0)"/>
     <use xlink:href="#DejaVuSans-57" transform="translate(115.28125 0)"/>
     <use xlink:href="#DejaVuSans-4c" transform="translate(154.484375 0)"/>
     <use xlink:href="#DejaVuSans-50" transform="translate(182.265625 0)"/>
     <use xlink:href="#DejaVuSans-44" transform="translate(279.671875 0)"/>
     <use xlink:href="#DejaVuSans-57" transform="translate(340.953125 0)"/>
     <use xlink:href="#DejaVuSans-52" transform="translate(380.15625 0)"/>
     <use xlink:href="#DejaVuSans-55" transform="translate(441.34375 0)"/>
     <use xlink:href="#DejaVuSans-10" transform="translate(476.0625 0)"/>
     <use xlink:href="#DejaVuSans-4a" transform="translate(512.140625 0)"/>
     <use xlink:href="#DejaVuSans-48" transform="translate(575.625 0)"/>
     <use xlink:href="#DejaVuSans-51" transform="translate(637.15625 0)"/>
     <use xlink:href="#DejaVuSans-48" transform="translate(700.53125 0)"/>
     <use xlink:href="#DejaVuSans-55" transform="translate(762.0625 0)"/>
     <use xlink:href="#DejaVuSans-44" transform="translate(803.171875 0)"/>
     <use xlink:href="#DejaVuSans-57" transform="translate(864.453125 0)"/>
     <use xlink:href="#DejaVuSans-48" transform="translate(903.65625 0)"/>
     <use xlink:href="#DejaVuSans-47" transform="translate(965.1875 0)"/>
     <use xlink:href="#DejaVuSans-3" transform="translate(1028.671875 0)"/>
     <use xlink:href="#DejaVuSans-4a" transform="translate(1060.453125 0)"/>
     <use xlink:href="#DejaVuSans-5c" transform="translate(1123.9375 0)"/>
     <use xlink:href="#DejaVuSans-55" transform="translate(1183.125 0)"/>
     <use xlink:href="#DejaVuSans-52" transform="translate(1222.03125 0)"/>
     <use xlink:href="#DejaVuSans-3" transform="translate(1283.21875 0)"/>
     <use xlink:href="#DejaVuSans-45" transform="translate(1315 0)"/>
     <use xlink:href="#DejaVuSans-4c" transform="translate(1378.484375 0)"/>
     <use xlink:href="#DejaVuSans-44" transform="translate(1406.265625 0)"/>
     <use xlink:href="#DejaVuSans-56" transform="translate(1467.546875 0)"/>
    </g>
   </g>
  </g>
  <g id="legend_1">
   <g id="patch_49">
    <path d="M 185.420391 14.938594 
L 203.420391 14.938594 
L 203.420391 8.638594 
L 185.420391 8.638594 
z
" style="fill: #1b6ca8; stroke: #222222; stroke-width: 0.5; stroke-linejoin: miter"/>
   </g>
   <g id="text_39">
    <!-- OU-II -->
    <g transform="translate(210.620391 14.938594) scale(0.09 -0.09)">
     <use xlink:href="#DejaVuSans-32"/>
     <use xlink:href="#DejaVuSans-38" transform="translate(78.71875 0)"/>
     <use xlink:href="#DejaVuSans-10" transform="translate(151.90625 0)"/>
     <use xlink:href="#DejaVuSans-2c" transform="translate(187.984375 0)"/>
     <use xlink:href="#DejaVuSans-2c" transform="translate(217.484375 0)"/>
    </g>
   </g>
   <g id="patch_50">
    <path d="M 250.848984 14.938594 
L 268.848984 14.938594 
L 268.848984 8.638594 
L 250.848984 8.638594 
z
" style="fill: #c0392b; stroke: #222222; stroke-width: 0.5; stroke-linejoin: miter"/>
   </g>
   <g id="text_40">
    <!-- OU-III -->
    <g transform="translate(276.048984 14.938594) scale(0.09 -0.09)">
     <use xlink:href="#DejaVuSans-32"/>
     <use xlink:href="#DejaVuSans-38" transform="translate(78.71875 0)"/>
     <use xlink:href="#DejaVuSans-10" transform="translate(151.90625 0)"/>
     <use xlink:href="#DejaVuSans-2c" transform="translate(187.984375 0)"/>
     <use xlink:href="#DejaVuSans-2c" transform="translate(217.484375 0)"/>
     <use xlink:href="#DejaVuSans-2c" transform="translate(246.984375 0)"/>
    </g>
   </g>
   <g id="patch_51">
    <path d="M 318.932578 14.938594 
L 336.932578 14.938594 
L 336.932578 8.638594 
L 318.932578 8.638594 
z
" style="fill: #2e8b57; stroke: #222222; stroke-width: 0.5; stroke-linejoin: miter"/>
   </g>
   <g id="text_41">
    <!-- TFG -->
    <g transform="translate(344.132578 14.938594) scale(0.09 -0.09)">
     <use xlink:href="#DejaVuSans-37"/>
     <use xlink:href="#DejaVuSans-29" transform="translate(61.078125 0)"/>
     <use xlink:href="#DejaVuSans-2a" transform="translate(118.59375 0)"/>
    </g>
   </g>
  </g>
 </g>
 <defs>
  <clipPath id="p67b5bcceab">
   <rect x="55.882344" y="48.048" width="211.597656" height="135.454828"/>
  </clipPath>
  <clipPath id="p1ef5491318">
   <rect x="324.802344" y="48.048" width="211.597656" height="135.454828"/>
  </clipPath>
  <clipPath id="pd0f1de02e9">
   <rect x="55.882344" y="225.545172" width="211.597656" height="135.454828"/>
  </clipPath>
  <clipPath id="pa6d53108b1">
   <rect x="324.802344" y="225.545172" width="211.597656" height="135.454828"/>
  </clipPath>
 </defs>
</svg>
